<svg xmlns="http://www.w3.org/2000/svg">
  <symbol id="earth" viewBox="0 0 285.93 250">
    <title>Earth symbol</title>
    <path d="M276.94,0H9A9,9,0,0,0,1.22,13.46l134,232.06a9,9,0,0,0,15.54,0l134-232.06A9,9,0,0,0,276.94,0ZM107.18,137h89.5l-44.75,77.51ZM210.5,113H93.37L42.29,24.56H261.58Z" />
  </symbol>

  <symbol id="water" viewBox="0 0 285.93 250">
    <title>Water symbol</title>
    <path d="M1.22,13.46l134,232.06a9,9,0,0,0,15.54,0l134-232.06A9,9,0,0,0,276.94,0H9A9,9,0,0,0,1.22,13.46ZM261.58,24.56,151.93,214.47,42.29,24.56Z" />
  </symbol>

  <symbol id="air" viewBox="0 0 285.93 250">
    <title>Air symbol</title>
    <path d="M284.71,236.54,150.73,4.49a9,9,0,0,0-15.54,0L1.22,236.54A9,9,0,0,0,9,250h268A9,9,0,0,0,284.71,236.54ZM178.74,113H89.24L134,35.53ZM24.35,225.44,75.43,137H192.56l51.08,88.48Z" />
  </symbol>

  <symbol id="fire" viewBox="0 0 285.93 250">
    <title>Fire symbol</title>
    <path d="M284.71,236.54,150.73,4.49a9,9,0,0,0-15.54,0L1.22,236.54A9,9,0,0,0,9,250h268A9,9,0,0,0,284.71,236.54ZM24.35,225.44,134,35.53,243.64,225.44Z" />
  </symbol>

  <symbol id="aether" viewBox="0 0 250 250">
    <title>Aether symbol</title>
    <path d="M125,0A125,125,0,1,0,250,125,125,125,0,0,0,125,0Zm0,235c-52.47,0-95-49.25-95-110S72.53,15,125,15s95,49.25,95,110S177.47,235,125,235Z" />
  </symbol>
    
    
    
    <symbol id="sulfur" viewBox=" 0 0 285.93 250" >
    
        <title> Sulfur symbol</title>       
            
    <path d="M 146.36711,2.1182478 74.756427,126.20355 a 4.8120605,4.8120605 0 0 0 4.155578,7.19497 l 143.263695,-0.0252 a 4.8120605,4.8120605 0 0 0 4.15148,-7.20148 L 154.66081,2.0885578 a 4.8120605,4.8120605 0 0 0 -8.2937,0.02965 z M 210.85119,125.6325 93.601664,125.64903 152.21045,24.101821 Z"/>
        
  <g id="sticks">
    <path d="M 147.60742,131.65039 V 249.25 h 8.90039 V 131.65039 Z"/>
      
    <path d="m 94.240234,187.33984 -0.03711,5.83399 115.412105,0.75 0.0371,-5.83399 z"/>
      
    <path d="m 86.683594,190.57812 c 0.103899,0.83738 0.580452,1.32248 0.876953,1.56446 0.296501,0.24198 0.51171,0.33823 0.701172,0.41797 0.378923,0.15947 0.672662,0.22271 1.007812,0.28906 1.340602,0.26538 3.153461,0.35874 5.175781,0.35156 l -0.01562,-4.55273 c -0.06424,2.3e-4 -0.08627,-0.01 -0.150391,-0.01 v -1.26562 c -2.023083,0 -3.794075,0.0942 -5.119141,0.375 -0.331266,0.0702 -0.621569,0.13201 -1.03125,0.32617 -0.20484,0.0971 -0.4528,0.21512 -0.78125,0.55273 -0.328449,0.33761 -0.767961,1.1138 -0.664062,1.95117 z" />
      
    <path d="m 217.07422,190.72656 c -0.1039,-0.83737 -0.5785,-1.32442 -0.875,-1.5664 -0.2965,-0.24199 -0.51366,-0.33823 -0.70313,-0.41797 -0.37892,-0.15948 -0.67266,-0.22272 -1.00781,-0.28907 -1.3406,-0.26538 -3.15346,-0.35873 -5.17578,-0.35156 l 0.0176,4.55274 c 0.0634,-2.3e-4 0.0851,0.01 0.14844,0.01 v 1.26563 c 2.02308,0 3.79602,-0.0942 5.12109,-0.375 0.33127,-0.0702 0.61962,-0.13202 1.0293,-0.32617 0.20484,-0.0971 0.45475,-0.21513 0.7832,-0.55274 0.32845,-0.33761 0.76601,-1.11184 0.66211,-1.94922 z"/>
  </g>

            

    </symbol>
 </svg>
        
    